<svg width="82" height="82" viewBox="0 0 82 82" fill="none" xmlns="http://www.w3.org/2000/svg">
<mask id="mask0_47_5768" style="mask-type:luminance" maskUnits="userSpaceOnUse" x="0" y="0" width="82" height="82">
<path d="M80.5 80.5V1.5H1.5V80.5H80.5Z" fill="white" stroke="white" stroke-width="3"/>
</mask>
<g mask="url(#mask0_47_5768)">
<path d="M8.00732 45.9648C8.89139 45.9648 9.60889 46.6823 9.60889 47.5664C9.60889 48.4505 8.89139 49.168 8.00732 49.168C7.12326 49.168 6.40576 48.4505 6.40576 47.5664C6.40576 46.6823 7.12326 45.9648 8.00732 45.9648Z" fill="#79C259"/>
<path d="M14.4136 66.7948C14.4088 68.5598 12.977 69.9883 11.2104 69.9883H1.60107V41.1602H11.2104C12.9802 41.1602 14.4136 42.5937 14.4136 44.3633V66.7948Z" stroke="#79C259" stroke-width="3" stroke-miterlimit="10" stroke-linecap="round" stroke-linejoin="round"/>
<path d="M54.4622 59.7943L74.1422 53.0295C76.2419 52.2718 78.7291 52.9877 79.7894 54.9496C81.2292 57.6132 79.9687 60.5504 77.5231 61.5288L47.5979 74.705C45.1508 75.8181 42.4938 76.3945 39.8063 76.3945C36.395 76.3945 33.0478 75.4672 30.1233 73.7119L21.7471 68.6864C19.814 67.5267 16.6606 66.8766 14.4136 66.7948" stroke="#79C259" stroke-width="3" stroke-miterlimit="10" stroke-linecap="round" stroke-linejoin="round"/>
<path d="M14.4136 44.3633H27.0931C28.7444 44.3633 30.3667 44.7877 31.8049 45.5981L40.2676 50.3579C40.7481 50.6286 41.2878 50.7695 41.8387 50.7695H52.2105C54.8642 50.7695 57.0151 52.9204 57.0151 55.5742C57.0151 57.368 56.0334 58.9311 54.576 59.7559C53.8777 60.1531 53.0705 60.3789 52.2105 60.3789H35.929" stroke="#79C259" stroke-width="3" stroke-miterlimit="10" stroke-linecap="round" stroke-linejoin="round"/>
<path d="M27.2183 13.2947C28.5154 8.86784 32.2041 5.5896 37.1078 5.5896C45.0067 5.5896 47.5019 14.5984 47.5019 14.5984C47.5019 14.5984 49.9971 5.5896 57.8976 5.5896C64.0508 5.5896 68.2918 10.7546 68.2918 16.8724C68.2918 24.9685 60.6587 30.388 47.6941 41.6248C39.8841 34.8556 33.5491 30.1257 29.9542 25.4166" stroke="#79C259" stroke-width="3" stroke-miterlimit="10" stroke-linecap="round" stroke-linejoin="round"/>
<path d="M27.0659 18.0977C27.95 18.0977 28.6675 18.8152 28.6675 19.6992C28.6675 20.5833 27.95 21.3008 27.0659 21.3008C26.1819 21.3008 25.4644 20.5833 25.4644 19.6992C25.4644 18.8152 26.1819 18.0977 27.0659 18.0977Z" fill="#79C259"/>
</g>
</svg>
